<svg width="120" height="105" viewBox="0 0 120 105" fill="none" xmlns="http://www.w3.org/2000/svg">
<g clip-path="url(#clip0_126_623)">
<path d="M52.7708 7.19861C54.0417 4.77868 53.0833 1.80505 50.6458 0.554074C48.2083 -0.696902 45.1667 0.246457 43.8958 2.64587L24.5 39.3754H6.66667C2.97917 39.3754 0 42.308 0 45.9379C0 49.5677 2.97917 52.5004 6.66667 52.5004L17.4792 95.0541C18.9583 100.899 24.2917 105 30.4167 105H89.5833C95.7083 105 101.042 100.899 102.521 95.0541L113.333 52.5004C117.021 52.5004 120 49.5677 120 45.9379C120 42.308 117.021 39.3754 113.333 39.3754H95.5L76.1042 2.64587C74.8333 0.246457 71.8125 -0.696902 69.3542 0.554074C66.8958 1.80505 65.9583 4.77868 67.2292 7.19861L84.2292 39.3754H35.7708L52.7708 7.19861ZM40 62.3441V82.0316C40 83.8363 38.5 85.3129 36.6667 85.3129C34.8333 85.3129 33.3333 83.8363 33.3333 82.0316V62.3441C33.3333 60.5394 34.8333 59.0629 36.6667 59.0629C38.5 59.0629 40 60.5394 40 62.3441ZM60 59.0629C61.8333 59.0629 63.3333 60.5394 63.3333 62.3441V82.0316C63.3333 83.8363 61.8333 85.3129 60 85.3129C58.1667 85.3129 56.6667 83.8363 56.6667 82.0316V62.3441C56.6667 60.5394 58.1667 59.0629 60 59.0629ZM86.6667 62.3441V82.0316C86.6667 83.8363 85.1667 85.3129 83.3333 85.3129C81.5 85.3129 80 83.8363 80 82.0316V62.3441C80 60.5394 81.5 59.0629 83.3333 59.0629C85.1667 59.0629 86.6667 60.5394 86.6667 62.3441Z" fill="#00FDDC"/>
</g>
<defs>
<clipPath id="clip0_126_623">
<rect width="120" height="105" fill="white"/>
</clipPath>
</defs>
</svg>
