<svg width="105" height="120" viewBox="0 0 105 120" fill="none" xmlns="http://www.w3.org/2000/svg">
<g clip-path="url(#clip0_132_1053)">
<path d="M52.5234 33.0469C37.6172 33.0469 25.5937 45.0703 25.5937 59.9766C25.5937 74.8828 37.6172 86.9062 52.5234 86.9062C67.4297 86.9062 79.4531 74.8828 79.4531 59.9766C79.4531 45.0703 67.4297 33.0469 52.5234 33.0469ZM52.5234 77.4844C42.8906 77.4844 35.0156 69.6328 35.0156 59.9766C35.0156 50.3203 42.8672 42.4688 52.5234 42.4688C62.1797 42.4688 70.0312 50.3203 70.0312 59.9766C70.0312 69.6328 62.1562 77.4844 52.5234 77.4844ZM86.8359 31.9453C86.8359 35.4375 84.0234 38.2266 80.5547 38.2266C77.0625 38.2266 74.2734 35.4141 74.2734 31.9453C74.2734 28.4766 77.0859 25.6641 80.5547 25.6641C84.0234 25.6641 86.8359 28.4766 86.8359 31.9453ZM104.672 38.3203C104.273 29.9062 102.352 22.4531 96.1875 16.3125C90.0469 10.1719 82.5938 8.25 74.1797 7.82812C65.5078 7.33594 39.5156 7.33594 30.8438 7.82812C22.4531 8.22656 15 10.1484 8.83594 16.2891C2.67188 22.4297 0.773438 29.8828 0.351562 38.2969C-0.140625 46.9688 -0.140625 72.9609 0.351562 81.6328C0.75 90.0469 2.67188 97.5 8.83594 103.641C15 109.781 22.4297 111.703 30.8438 112.125C39.5156 112.617 65.5078 112.617 74.1797 112.125C82.5938 111.727 90.0469 109.805 96.1875 103.641C102.328 97.5 104.25 90.0469 104.672 81.6328C105.164 72.9609 105.164 46.9922 104.672 38.3203ZM93.4688 90.9375C91.6406 95.5312 88.1016 99.0703 83.4844 100.922C76.5703 103.664 60.1641 103.031 52.5234 103.031C44.8828 103.031 28.4531 103.641 21.5625 100.922C16.9688 99.0938 13.4297 95.5547 11.5781 90.9375C8.83594 84.0234 9.46875 67.6172 9.46875 59.9766C9.46875 52.3359 8.85938 35.9062 11.5781 29.0156C13.4063 24.4219 16.9453 20.8828 21.5625 19.0312C28.4766 16.2891 44.8828 16.9219 52.5234 16.9219C60.1641 16.9219 76.5938 16.3125 83.4844 19.0312C88.0781 20.8594 91.6172 24.3984 93.4688 29.0156C96.2109 35.9297 95.5781 52.3359 95.5781 59.9766C95.5781 67.6172 96.2109 84.0469 93.4688 90.9375Z" fill="#E20040"/>
</g>
<defs>
<clipPath id="clip0_132_1053">
<rect width="105" height="120" fill="white"/>
</clipPath>
</defs>
</svg>
