<svg width="120" height="120" viewBox="0 0 120 120" fill="none" xmlns="http://www.w3.org/2000/svg">
<g clip-path="url(#clip0_132_1084)">
<path d="M97.5 48.75C97.5 59.5078 94.0078 69.4453 88.125 77.5078L117.797 107.203C120.727 110.133 120.727 114.891 117.797 117.82C114.867 120.75 110.109 120.75 107.18 117.82L77.5078 88.125C69.4453 94.0312 59.5078 97.5 48.75 97.5C21.8203 97.5 0 75.6797 0 48.75C0 21.8203 21.8203 0 48.75 0C75.6797 0 97.5 21.8203 97.5 48.75ZM48.75 82.5C53.1821 82.5 57.5708 81.627 61.6656 79.9309C65.7603 78.2348 69.4809 75.7488 72.6149 72.6149C75.7488 69.4809 78.2348 65.7603 79.9309 61.6656C81.627 57.5708 82.5 53.1821 82.5 48.75C82.5 44.3179 81.627 39.9292 79.9309 35.8344C78.2348 31.7397 75.7488 28.0191 72.6149 24.8851C69.4809 21.7512 65.7603 19.2652 61.6656 17.5691C57.5708 15.873 53.1821 15 48.75 15C44.3179 15 39.9292 15.873 35.8344 17.5691C31.7397 19.2652 28.0191 21.7512 24.8851 24.8851C21.7512 28.0191 19.2652 31.7397 17.5691 35.8344C15.873 39.9292 15 44.3179 15 48.75C15 53.1821 15.873 57.5708 17.5691 61.6656C19.2652 65.7603 21.7512 69.4809 24.8851 72.6149C28.0191 75.7488 31.7397 78.2348 35.8344 79.9309C39.9292 81.627 44.3179 82.5 48.75 82.5Z" fill="#E20040"/>
</g>
<defs>
<clipPath id="clip0_132_1084">
<rect width="120" height="120" fill="white"/>
</clipPath>
</defs>
</svg>
