<svg width="120" height="122" viewBox="0 0 120 122" fill="none" xmlns="http://www.w3.org/2000/svg">
<path d="M60 1.90625C26.879 1.90625 0 28.3793 0 61C0 93.6207 26.879 120.094 60 120.094C93.121 120.094 120 93.6207 120 61C120 28.3793 93.121 1.90625 60 1.90625ZM84.3629 88.8551C83.3468 88.8551 82.7177 88.5453 81.7742 87.9973C66.6774 79.0379 49.1129 78.6566 31.7661 82.1594C30.8226 82.3977 29.5887 82.7789 28.8871 82.7789C26.5403 82.7789 25.0645 80.9441 25.0645 79.0141C25.0645 76.5598 26.5403 75.3922 28.3548 75.0109C48.1694 70.698 68.4194 71.0793 85.6936 81.2539C87.1694 82.1832 88.0403 83.0172 88.0403 85.1855C88.0403 87.3539 86.3226 88.8551 84.3629 88.8551ZM90.871 73.2238C89.6129 73.2238 88.7661 72.6758 87.8952 72.223C72.7742 63.4066 50.2258 59.8563 30.1694 65.2176C29.0081 65.5273 28.379 65.8371 27.2903 65.8371C24.7016 65.8371 22.5968 63.7641 22.5968 61.2145C22.5968 58.6648 23.8548 56.973 26.3468 56.282C33.0726 54.4234 39.9435 53.0414 50.0081 53.0414C65.7097 53.0414 80.879 56.8777 92.8306 63.8832C94.7903 65.027 95.5645 66.5043 95.5645 68.5773C95.5403 71.1508 93.5081 73.2238 90.871 73.2238ZM98.371 55.0668C97.1129 55.0668 96.3387 54.757 95.25 54.1375C78.0242 44.0105 47.2258 41.5801 27.2903 47.0605C26.4194 47.2988 25.3306 47.6801 24.1694 47.6801C20.9758 47.6801 18.5323 45.2258 18.5323 42.0566C18.5323 38.816 20.5645 36.9813 22.7419 36.3617C31.2581 33.9074 40.7903 32.7398 51.1694 32.7398C68.8306 32.7398 87.3387 36.3617 100.863 44.1297C102.75 45.202 103.984 46.6793 103.984 49.5148C103.984 52.7555 101.323 55.0668 98.371 55.0668Z" fill="#353535"/>
</svg>
