<svg width="103" height="120" viewBox="0 0 103 120" fill="none" xmlns="http://www.w3.org/2000/svg">
<g clip-path="url(#clip0_126_602)">
<path d="M103 49.1953C92.8746 49.2174 82.9984 45.9953 74.767 39.9844V81.8906C74.7646 89.6519 72.4378 97.2274 68.0976 103.604C63.7574 109.981 57.6108 114.854 50.4798 117.573C43.3489 120.292 35.5736 120.727 28.1938 118.819C20.814 116.911 14.1816 112.752 9.18353 106.897C4.18548 101.042 1.0601 93.7715 0.225392 86.057C-0.60932 78.3426 0.886429 70.5522 4.5126 63.7278C8.13876 56.9035 13.7225 51.3704 20.5169 47.8687C27.3114 44.367 34.9927 43.0636 42.5335 44.1328V65.2031C39.0855 64.0966 35.3826 64.129 31.9537 65.2956C28.5248 66.4623 25.5451 68.7035 23.4401 71.6993C21.3351 74.6951 20.2125 78.2923 20.2324 81.9773C20.2524 85.6623 21.414 89.2467 23.5514 92.2186C25.6887 95.1905 28.6925 97.398 32.1339 98.5259C35.5752 99.6538 39.2782 99.6445 42.7141 98.4992C46.1499 97.3539 49.1429 95.1312 51.2658 92.1485C53.3887 89.1659 54.5328 85.5757 54.5349 81.8906V0H74.767C74.7556 1.74437 74.9018 3.4861 75.2038 5.20313C75.9074 9.03047 77.3693 12.6714 79.4999 15.9033C81.6306 19.1352 84.3854 21.8902 87.596 24C92.1661 27.077 97.5232 28.7153 103 28.7109V49.1953Z" fill="#00FDDC"/>
</g>
<defs>
<clipPath id="clip0_126_602">
<rect width="103" height="120" fill="white"/>
</clipPath>
</defs>
</svg>
