<svg width="120" height="122" viewBox="0 0 120 122" fill="none" xmlns="http://www.w3.org/2000/svg">
<g clip-path="url(#clip0_126_592)">
<path d="M60 122C75.913 122 91.1742 115.573 102.426 104.134C113.679 92.6938 120 77.1782 120 61C120 44.8218 113.679 29.3062 102.426 17.8665C91.1742 6.42677 75.913 0 60 0C44.087 0 28.8258 6.42677 17.5736 17.8665C6.32141 29.3062 0 44.8218 0 61C0 77.1782 6.32141 92.6938 17.5736 104.134C28.8258 115.573 44.087 122 60 122ZM88.3594 64.5742C90.5625 66.8141 90.5625 70.4359 88.3594 72.652C86.1562 74.868 82.5938 74.8918 80.4141 72.652L60.0234 51.9215L39.6328 72.652C37.4297 74.8918 33.8672 74.8918 31.6875 72.652C29.5078 70.4121 29.4844 66.7902 31.6875 64.5742L56.0156 39.793C58.2188 37.5531 61.7813 37.5531 63.9609 39.793L88.3594 64.5742Z" fill="#353535"/>
</g>
<defs>
<clipPath id="clip0_126_592">
<rect width="120" height="122" fill="white" transform="matrix(-1 0 0 -1 120 122)"/>
</clipPath>
</defs>
</svg>
