<?xml version="1.0" encoding="UTF-8"?>
<svg id="Layer_2" data-name="Layer 2" xmlns="http://www.w3.org/2000/svg" viewBox="0 0 198.37 225.12">
  <defs>
    <style>
      .cls-1 {
        fill: #353535;
        stroke-width: 0px;
      }
    </style>
  </defs>
  <g id="Layer_1-2" data-name="Layer 1">
    <g>
      <path class="cls-1" d="M98.37.03c14.34-.19,27.75,1.72,40.48,6.96,30.08,12.38,44.83,35.77,47.69,67.45.29,3.22.21,6.48.09,9.71-.1,2.75-.1,4.75,2.98,6.58,4.15,2.46,4.38,7.55,5.03,11.99.46,3.12-.05,6.31,2.43,9.06,1.45,1.62,1.3,4.26,1.27,6.49-.1,6.94-1.54,13.6-4.76,19.79-1.27,2.44-2.7,4.8-5.45,5.92-1.31.53-1.61,1.84-2.16,2.93-1.92,3.8-4.09,7.42-7.13,10.44-2.67,2.65-5.75,3.97-9.49,2.66-1.53-.53-2.76-.36-4.21.45-3.09,1.73-6.59,1.03-9.91,1.15-2.35.09-3.5.94-4.2,3.24-1.75,5.74-2.02,11.44-.83,17.33,1.23,6.1,2.32,12.25,1.33,18.54-.99,6.28-4.16,11.17-10.13,13.31-11.72,4.19-23.56,8.07-35.8,10.51-6.93,1.38-13.67.12-20.29-1.76-8.38-2.39-16.72-4.92-25.02-7.59-8.92-2.87-13.04-8.61-13.32-18.1-.18-6.15,1.13-12.14,2.17-18.15.88-5.08-.13-9.89-1.58-14.71-.5-1.67-1.38-2.38-3.15-2.52-4.28-.35-8.78.59-12.71-2.09-.38-.26-1.23.01-1.79.22-4.88,1.81-8.45-.26-11.5-3.85-.81-.95-1.58-1.93-2.29-2.95-2.78-4-5.46-7.97-8.67-11.74-6.62-7.77-9.16-17.91-6.28-27.7,1.47-4.98,2.13-10.03,3.43-14.97.97-3.67,2.01-7.24,5.86-9.04,1.78-.83.92-2.42.84-3.64-.85-14.19,1.38-27.84,7.28-40.79C29.52,21.12,48.98,8.02,74.11,2.42,82.29.6,90.6-.17,98.37.03ZM40.83,150.4c-1.02-1.35,2.44-2.6.1-3.98.99-1.02,2.37-1.96,3.57-1.27,1.32.76,1.51,2.65,1.18,4.04-.52,2.26-.56,3.46,2.36,3.83,3.19.41,3.54,2.02,1.45,4.55-.79.96-1.64,1.89-2.97,2.09.5-1.7,3-2.11,2.82-4.47-1.14.21-2.27.24-3.23.66-1.32.57-3.58.52-3.1,2.82.5,2.4,2.52.07,3.62.87.79.95,1.96,1.01,3.04,1.25,7.82,1.72,13.02,6.32,15.53,14.08,1.97-1.28,4.29-2.1,6.33-1,2.37,1.27,3.03.4,3.52-2.4.06,3.81,1.99,3.43,4.12,3.03,1.96-.36,3.83.45,5.52,1.06,1.02-1.12-.23-2.58,1.51-4.26-.7,4.98,1.81,4.32,4.44,3.87,1.44-.25,3.11-.36,4.43.14,2.76,1.03,4.32.69,4.39-3.01.2,3.51,1.67,3.94,4.39,3.01,1.45-.5,3.33-.52,4.79-.05,2.78.89,3.81-.12,4.04-2.71,0-.07.39-.11.6-.16.72.95-.27,2.26.99,3.43,2.46-3.4,7.97,1.72,10.03-4.15-.14,2.57.12,3.65,2.73,2.26,2.12-1.13,4.56-.44,6.59,1.07,2.62-7.88,7.66-12.64,15.58-14.25,1.08-.22,2.24-.32,3.07-1.2,1.09-.82,3.74,1.52,3.49-.96-.36-3.55-3.87-2.61-6.37-3.35.2,2.33,2.37,2.83,3.01,4.44-.56-.25-1.19-.4-1.67-.76-1.44-1.08-2.9-2.55-2.61-4.27.26-1.54,2.3-1.8,3.75-1.88,2.45-.12,1.57-1.49,1.37-2.81-.26-1.74-.4-3.83,1.14-4.81,1.29-.82,2.72.66,4.06,1.26.76.34,1.76,2.03,2.36.54,1.31-3.24,3.13-1.19,5.02-.37-3.75-9.31-9.32-11.41-17.43-6.97-3.5,1.92-7.09,3.64-10.89,4.92-5.26,1.77-10.65,2.92-16.17,1.85-4.93-.96-7.42-5.43-10.48-8.69-6.57-7.02-6.9-16.43-1.54-24.45,4.04-6.04,9.71-9.97,16.63-12.01,8.99-2.64,17.36.21,22.66,7.96,4.99,7.29,7.1,15.31,4.83,24.14-.2.78-1.32,2.11.53,2.2,1.36.07,3.16,1,4.11-.68,1.02-1.81,3.24-4.78,2.32-5.54-3.97-3.26,1.24-3.32.97-4.39-1.98,1.37,2.17,2.73.84,4.77-1.14,1.76-1.84,3.8-2.77,5.71-.35.73-.08,1.17.58,1.45.54.23.94,0,1.21-.5.41-.77.82-1.54,1.25-2.3,9.21-16.63,10.12-34.39,7.04-52.65-1.57-9.35-6.17-17.19-13.45-23.08-5.54-4.49-11.96-6.92-19.49-4.72-5.27,1.53-10.8,1.85-16.3,1.9-.81,0-1.88.46-2.39-.49-.72-1.32,1.55-1.21,1.38-2.55-21.85,3.25-43.54,3.58-65.08-1.9.45,1.71,3.04,1.55,2.84,4.05-3.49-.69-6.8-1.34-10.39-2.04.51,1.93,3.3,3.72-.5,4.83-7.16,2.09-11.39,7.25-13.93,14.03-1.94,5.16-2.85,10.56-3.93,15.94-3.41,16.99-.59,32.93,7.83,47.96.45.81.49,2.52,2.2,1.75,1.75-.79.51-1.87.09-2.76-1.42-3.01-3.75-5.88-1.28-9.35,1.19,1.37,2.38,2.74,3.43,3.95-.25,1.56-2.87-.73-2.31,1.85.93,4.25,2.42,5.11,8.48,4.68-3.24-10.23-1.09-19.5,5.39-27.75,4.48-5.7,10.64-8.32,17.86-7.22,9.11,1.38,16.49,5.97,21.01,14.07,7.18,12.87.39,21.73-9.09,29.79-3,2.55-6.33,2.37-9.67,2.3-7.94-.17-15.02-3.26-21.86-6.99-8.42-4.59-14.74-1.96-17.56,7.36,1.61.05,2.71-3.78,4.36-1.09,1.48,2.42,2.51.86,3.81.45.07,1.05-.92,1.35-1.41,2.01-.85,1.12-2.54,2.53-1.27,3.68,1.58,1.43,1.16-2.02,2.68-1.77.32,1.21-1.77,3.02.13,3.5,1.66.42,3.09-1.21,3.42-3.15.22-1.28.51-2.6-.48-4.03-1.19,1.41-2.19,2.59-3.19,3.79ZM103.03,219.21c.79.54,1.64,1.01,2.34,1.65.61.56,1.01,1.69,1.99.74.65-.63-.05-1.37-.39-1.97-2.85-5.08-10.6-5.86-14.71-1.47-.82.87-2.28,2.15-1.46,3.08,1.39,1.59,1.7-.94,2.7-1.28.46-.16.92-.35,1.38-.53-1.47,1.54-2.29,2.92.88,3.1,1.96.12,3.92.23,5.88.18,3.05-.08,3.94-1.14,1.39-3.51ZM104.45,210.16c-.45,1.64-2.97,2.26-2.35,4.58,2.53-.91,5.09-1.56,4.71-4.97-.84.17-1.67.34-2.49.51.94-1.76,2.7-1.92,4.15-1.4,1.59.57.66,2.14.41,3.26-.4,1.83.67,1.8,1.9,1.66,4.22-.49,8.55.3,12.93-1.53-.98,2.45-2.39,3.99-3.94,5.42-.16-.59-.25-1.26-1.12-1.13-2.8.43-5.62.8-8.4,1.33-.93.18-2.53.03-2.06,1.82.36,1.41,1.18,1.7,2.77,1.45,3.28-.51,5.81-2.66,8.88-3.54-.06.11-.15.21-.18.32-.02.08.03.27.03.27,2.19-.19,4.83.47,5.01-3.14.08-1.66,1.05-3.67,2.63-3.72,3.56-.11,6.38-1.82,9.54-2.91,3.36-1.16,5.75-2.92,7.92-5.35.7-.78,1.42-1.71,2.38-1.57,2.5.37,2.51-1.27,2.64-2.88.36-4.51-.07-8.97-1.02-13.37-1.6-7.45-1.86-14.81,1.01-22.05.11-.27-.12-.66-.44-2.13-2.62,4.42-2.85,8.56-3.58,13.11-1.23-4.07.61-7.43.44-11.6-2.01,2.51-1.63,5.08-2.73,7.14-1.07-1.71.45-3.54-.13-5.26-2.45.53-2.28,2.18-2.25,3.85.09,7.22.29,14.46-1.01,21.62-.4,2.19-1.43,5.88-3.24,5.13-3.5-1.45-4.2,1.48-6.15,2.33-.89.39-1.91.76-2.86.73-1.73-.06-4.2-2.18-4.17,1.8,0,.09-.44.29-.48.25-2.18-2.31-4.6,1.05-6.8-.29-2.22-1.35-2.73.43-3.23,1.91-1.15-.32-.39-2.93-1.76-1.77-3.61,3.04-8.48-1.44-11.79,2.31-.02.02-.49-.21-.51-.35-.43-2.81-2.23-1.07-3.39-.94-2.39.29-4.81.42-6.99-.58-1.7-.78-2.62-.72-3.1,1.8-.32-2.92-1.44-3.03-3.51-2.43-2.67.77-6.11-.5-7.7-2.25-.24-.27-.43-.62-.84-.3-4.84,3.81-7.48-4.57-12.15-2.25-.22.11-1.44-1.28-1.82-2.14-.54-1.24-.82-2.61-1.04-3.95-1.11-6.8-.99-13.65-.88-20.5.03-1.81.1-3.54-2.47-3.85-.05,1.97.99,3.89.2,6.12-1.31-2.61-.52-5.67-3.56-8.2,1.64,6.52,2.54,12.21,1.12,18.61-1.03-15.74-1.23-16.73-4.52-19.18,4.29,9.32,2.65,18.15,1.05,26.97-.61,3.34-.7,6.69-.4,10.05.09,1-.13,2.42,1.56,2.49,1.87.08,2.49,2.12,3.53,2.61,2.47,1.15,3.78,3.65,6.83,4.37,3.49.83,6.7,2.94,10.54,3.14,1.01.05,1.95,1.44,1.95,2.53-.02,4.27,3.2,3.81,6.23,4.57-1.46-2.22-3.44-3.56-3.96-6.08,4.26,1.42,8.53.7,12.69,1.25,1.54.2,1.82-.27,1.69-1.83-.32-3.62.66-4.41,3.78-2.58,2.55,1.49,3.26.31,4.05-1.58.37-.87.6-1.8.89-2.69,3.16.37,2.71,4.49,5.56,4.99ZM117.73,5.58c-.18,2.84-.17,5.52,1.81,7.53,2.71,2.75,4.75-.55,7.02-1.09,6.29-1.5,11.24-.58,13.43,4.14,1.86,4.01,4.7,4.14,7.86,3.26,3.83-1.07,4.13.38,3.15,3.39-.75,2.31-.54,3.47,2.49,3.7,3.35.26,7.12.86,6.82,5.91-.06.94.87,2.04,1.55,2.9,10.68,13.59,15.39,29.23,15.27,46.28-.03,4.23,1.04,5.89,5.06,6.6,2.65.47,3.2-.3,3.34-2.66.29-4.87.17-9.73-.44-14.56-3.42-27.02-15.71-48.5-40.96-60.22-29.35-13.62-59.63-13.71-89.14-.63C20.21,25.56,10.78,60,12.44,86.39c.06.9-.22,2.04,1.28,2.27,3.7.56,6.92-2.12,6.8-5.77-.46-14.51,1.95-28.28,10.18-40.64,1.46-2.18,2.77-3.71,5.89-1.16-.7-3.08-1.3-5.38-1.1-7.75.29-3.57,1.93-6.46,5.42-7.27,3.39-.79,5.05-2.95,6.32-5.7,1.75-3.78,4.61-6.46,8.08-8.57.81-.49,1.68-1.53,2.65-.93,1.17.72-.02,1.78-.08,2.69-.06.97-.65,2.13.31,2.79.91.62,1.91-.1,2.79-.54.78-.39,1.53-.83,2.28-1.28,5.82-3.46,11.42-7.09,18.7-7.31,4.41-.13,8.47.86,12.52,1.75.85-2.59-1.8-3.13-2.65-5.3,6.64.55,12.02,2.47,15.77,7.98,2.92-2.82,5.91-5.19,10.12-6.08ZM13.66,90.08c-6.38.91-7.5,5.62-8.07,10.16-2.33,18.57,1.84,35.81,11.31,51.84,1.33,2.25,3.11,4.2,5.24,5.78,1.92,1.42,3.99,1.88,6.34,1.25,1.59-.43,2.86-.7,1.73-2.87-.95-1.81-1.01-3.97-.42-5.85.83-2.66-.02-4.75-1.15-7.05-6.55-13.45-9.67-27.64-9.01-42.63.13-3.01.9-5.88,1.5-8.81.64-3.14-.26-3.64-3.35-2.98-2.17.47-2.66,2.03-3.25,3.64-3.54,9.65-2.36,19.38-.29,29.08.93,4.38,2.13,8.7,3.2,13.04-5.93-14.31-9.33-28.86-3.77-44.59ZM181.07,134.91c-.68-1.94-.03-2.82.23-3.75,2.24-7.92,4.03-15.94,4.29-24.2.17-5.52-.65-10.91-2.87-16.04-.98-2.27-3.22-2.92-4.92-2.4-2.05.63-.57,2.63-.23,4.06.31,1.33.7,2.65.88,4,2.06,15.4-1.19,29.97-7.23,44.01-1.63,3.8-3.58,7.29-2.17,11.63.31.96.08,2.33-.39,3.28-1.51,3.09.42,3.52,2.7,3.86,2.46.36,4.35-.8,6.07-2.31,2.96-2.58,5.04-5.83,6.82-9.27,4.97-9.62,7.77-19.9,8.99-30.61.75-6.58.93-13.18-.81-19.66-1.4-5.2-3.29-6.85-8.13-7.22,5.38,15.14,2.2,29.59-3.24,44.63ZM123.23,130.79c1.25-.72,1.27-1.93,1.53-2.99.59-2.41,1.07-4.86,1.71-7.25.43-1.59,1.1-3.28,3.01-3.38,2.09-.12,2.93,1.61,3.59,3.26.42,1.04.68,2.13,1.05,3.19.75,2.18.56,5.98,2.66,6.05,2.3.07,1.99-3.72,2.85-5.81.7-1.69.64-4.25,2.53-4.73,2.71-.69,1.45-1.91.92-3.1-3.79-8.49-12.15-12.84-21.04-10.98-7.44,1.56-14.68,10.84-14.89,19.03-.05,1.97.01,4.15,2.41,4.31,2.56.18,2.53-2.27,2.83-4.05.37-2.2.45-4.46.91-6.63.39-1.84,1.63-3.09,3.66-3.15,2-.06,2.89,1.38,3.3,3,.57,2.28.87,4.63,1.32,6.95.41,2.12.12,4.45,1.65,6.29ZM76.27,130.81c.97-.29,1.11-.92,1.25-1.51.59-2.54,1.04-5.12,1.75-7.62.52-1.81,1.74-2.97,3.85-2.82,2.2.15,3.4,1.36,3.83,3.42.23,1.09.2,2.24.47,3.32.37,1.46.87,3.15,2.82,2.8,1.69-.31,2.16-1.75,2.16-3.43,0-6.13-2.91-10.8-6.88-15.21-7.8-8.66-24.19-6.5-29.47,7.18-.23.6-.93,1.73.12,1.77,3.53.13,3.27,3.22,4.41,5.21.54.93.61,2.5,1.92,2.48,1.58-.03,1.51-1.74,1.84-2.84.64-2.14,1.02-4.35,1.67-6.48.42-1.37,1.35-2.44,2.96-2.4,1.45.04,2.26,1.1,2.67,2.28.82,2.34,1.43,4.75,2.19,7.11.73,2.28.77,4.85,2.44,6.75ZM113.2,183.35c0-5.57-1.39-7.06-6.56-7.04-5.78.02-6.8,1.14-6.8,7.46,0,4.42.53,4.84,6,4.8,6.56-.04,7.37-.61,7.37-5.22ZM98.67,183.14c.03-5.81-.9-6.79-6.5-6.82-5.16-.03-6.56,1.38-6.58,6.62-.02,5.13.58,5.6,7.31,5.64,5.39.03,5.75-.3,5.77-5.44ZM99.91,193.93c.16,1.97-.93,4.75,2.01,5.6,2.73.79,5.65.9,8.36-.38,2.8-1.32,4.2-5.3,2.83-9.14-.97-2.73-3.1.02-4.71-.42-1.26-.34-2.77.3-4.05,0-3.81-.92-5.37.28-4.43,4.33ZM91.46,189.61c-6.06-.47-5.97-.47-5.93,4.72.02,2.61,1.18,4.39,3.53,5.05,2.98.84,6.09,1.27,8.94-.55.43-.28.77-1.06.77-1.6-.01-2.47.53-5.29-.48-7.3-.81-1.61-3.62.07-5.54-.24-.61-.1-1.24-.08-1.3-.08ZM79.76,175.79c-2.07,0-4.14.23-4.78,2.62-.67,2.5-1.45,5.61.24,7.46,1.76,1.93,5.02,2.34,7.7,1.74,2.58-.57.93-3.13,1.35-4.75.15-.58.02-1.24.07-1.85.4-4.31-.42-5.24-4.58-5.21ZM142.9,106.2c1.05,7.96,5.24,15.57,4.18,24.49,1.75-1.55,1.05-3.48,1.9-5.21.15,1.86.28,3.42.45,5.54.84-1.87.12-3.57,1.62-4.57.55,2.02-.82,3.95-.07,5.97,3.7-6.55-1.04-22.67-8.07-26.22ZM56.62,111.76c-1.77.47-1.61,2.22-2.75,2.36-.52-3.31,2.48-5.26,3.46-8.3-7.12,3.33-12.77,19.46-8.59,26.7.33-2.34-.98-4.5-.12-7.01.51,1.87.95,3.5,1.58,5.82.16-2.32.27-3.9.41-5.87.82,1.97.11,3.95,1.82,5.46-.79-6.79.67-12.95,4.18-19.15ZM84.28,194.82c0-.68-.06-2.29.02-3.89.08-1.6-.58-2.2-2.18-2.12-1.86.09-3.7-.17-5.49-.79-.64-.22-1.74-.63-1.87.36-.35,2.68-.77,5.48.89,7.92,1.45,2.12,3.63,3.07,6.14,2.59,1.53-.29,3.26-.85,2.49-4.07ZM114.43,193.56c-.15,4.31.45,5.31,3.29,5.44,3.74.18,6.44-2.59,6.37-6.94-.02-1.4,1.33-3.91-1.31-4.13-5.9-.47-8.19,1.26-8.34,5.62ZM73.49,181.33c.07-5.34-.86-6.78-4.14-6.74-2.95.04-4.41,2.19-4.45,6.54-.03,3.35,1.84,4.99,6.15,5.09,4.54.11,1.45-3.54,2.44-4.89ZM3.32,111.41c-4.27,7.82-.03,26.5,7,30.65-2.05-5.18-3.53-10.15-4.67-15.21-1.14-5.07-1.73-10.23-2.33-15.44ZM125.29,180.67c.14,6.14.65,6.58,5.69,4.82,2.79-.97,3.81-4.46,2.37-8.12-1.02-2.58-3.76-3.37-6.57-2.18-2.97,1.26-1.22,3.6-1.49,5.48ZM194.99,111.16c-.56,10.77-3,20.9-6.89,31.59,7.79-6.88,11.6-25.35,6.89-31.59ZM73.49,191.47c-.06-4.03-1.11-4.93-7.23-5.25-2.18-.11-1.29,1.66-1.31,2.61-.07,4.75,2.49,8.15,5.88,8.12,3.78-.04,2.61-2.76,2.66-5.48ZM133.78,189.08c-.6-.75,1.11-2.84-1.34-2.81-5.77.08-6.89,1.33-7.21,6.95-.12,2.17,0,3.68,2.66,3.72,3.28.05,5.76-3.15,5.89-7.87ZM124.23,181.13c-.04-.29-.05-1.57-.45-2.71-1.09-3.11-3.8-2.69-6.25-2.54-1.63.1-3.44.47-3.48,2.56-.05,2.59.25,5.18.41,7.77.04.65.29,1.13.94,1.44,3.54,1.67,8.84-1.66,8.83-6.52ZM89.54,15.48c-8.64-3.31-17.75-1.06-22.87,5.61-4.62,6.01-5.53,13.3-2.24,17.94-3.33-14.02,6.62-26.8,25.1-23.54ZM38.46,159.66c.98-.63,3.32,1.04,3.4-1.17.09-2.54-2.24-3.4-4.45-3.4-1.65,0-4.22.33-4.12,2.16.16,2.71,2.9,2.37,5.17,2.41ZM160.32,159.65c2.29-.02,5.02.3,5.23-2.37.14-1.86-2.43-2.17-4.07-2.2-2.22-.03-4.52.83-4.49,3.36.03,2.3,2.4.53,3.33,1.2ZM158.17,42.77c-.21.51-.35.94-.57,1.34q-2.81,5.24,2.91,5.82c.45.05.91.44,1.21-.21-.4-.72-1.07-1.12-1.84-1.05-2.89.24-2.67-.92-1.56-2.93.76-1.38,2.84-3,1.19-4.5-1.35-1.23-3.21.44-4.75,1.07-.5.2-1.51.33-1.39,1.37,1.58-.16,2.92-1.38,4.8-.9ZM79.26,216.56c2.78,2.56,5.28,3.72,8.12,4.44,1.74.44,2.37-.41,2.66-1.68.36-1.55-1.02-1.4-1.93-1.53-2.7-.41-5.4-.76-8.85-1.23ZM104.06,36.18c-.97-6.64-7.95-13.01-14.46-13.18q8.21,4.62,14.46,13.18ZM89.04,30.73c-4.1-3.41-8.64-3.82-12.97-1.46-2.47,1.35-4.64,2.97-3.83,6.62,2.27-6.36,7.7-8.09,16.79-5.16ZM118.75,215.56c-3.8-.81-7.62-1.23-11.38-.33-.64.15-1.59.38-1.43,1.37.1.62.69,1.15,1.35,1.03,3.83-.65,7.64-1.37,11.46-2.07ZM32.67,56.83c3.95-1.07,4.56-2.42,2.95-5.45-.54-1.02-2.13-2.01-1.21-3.15.76-.95,2.33-.15,3.54-.02.68.08,1.33.67,2.23-.03-.87-.39-1.62-.84-2.42-1.05-1.61-.42-3.49-1.63-4.8.12-1.18,1.58.2,3.11,1.18,4.3,2.07,2.54.81,3.98-1.47,5.28ZM72.69,214.95c-.1-.23-.25-.71-.5-1.12-.93-1.5-2.29-2.24-4.04-1.81-1.06.26-2.52.86-2.27,1.98.33,1.43,2.19,1.13,3.36,1.62.67.28,1.39.49,2.11.64.83.17,1.5.03,1.34-1.31ZM79.8,214.92c3.4,1.76,7.18,1.44,10.72,2.33.99.25,1.95-.17,2.09-1.01.19-1.14-1.11-1.26-1.82-1.28-3.66-.1-7.32-.05-10.99-.05ZM126.03,21.53c5.04,2.46,9.16,5.79,11.57,10.96-.73-5.98-5.09-10.07-11.57-10.96ZM132.85,214.36c-.54-1.69-1.65-2.31-2.91-2.4-2.14-.16-3.57.89-3.99,3.06-.16.81.07,1.61,1.14,1.3,1.95-.55,4.03-.83,5.76-1.96ZM140.32,211.74c-.43-1.61-1.44-2.25-2.76-2.28-1.85-.05-3.05.93-3.33,2.77-.13.84-.04,1.99,1.27,1.58,1.67-.52,3.62-.58,4.82-2.07ZM114.39,45.23c6.39-2.13,9.93-6.51,9.23-11.89-1.25,5.91-5.25,8.87-9.23,11.89ZM61.51,209.45c-1.58-.03-3.25.62-3.09,1.71.36,2.36,2.98,1.82,4.62,2.54.93.41,1.35-.44,1.26-1.22-.2-1.77-1.16-2.9-2.8-3.03ZM154.53,146.34c-.5,3.22-.76,5.66,1.98,7.17.52.28,1.02.79,1.64.25.57-.5.34-1.11.12-1.7-.73-1.96-1.78-3.71-3.75-5.72ZM52.71,19.64c-3.62,4.31-4.53,8.89-2.36,12.69-.45-4.65,1.42-8.36,2.36-12.69ZM177.17,107.15c.58-3.8.03-7.5-.72-12.14-2.25,4.9.33,8.43.72,12.14ZM154.06,31.68c-5.3.32-8.28,3.21-9.28,8.95,2.31-4.01,4.77-6.82,9.28-8.95ZM123.39,26.63c-4.82-.44-7.57,1.46-9.25,6.54,2.77-3.15,5.5-5.55,9.25-6.54ZM143.42,206.48c-1.55.17-2.44,1.05-2.41,2.63.01.81.18,2.08,1.21,1.84,1.51-.35,3.07-1.25,3.31-2.97.16-1.18-1.06-1.42-2.11-1.5ZM57.53,208.96c-.25-1.56-1.04-2.52-2.69-2.45-.87.04-2.06.36-1.83,1.31.39,1.63,1.86,2.67,3.39,3.02,1.13.25.86-1.17,1.13-1.88ZM21.65,107.66c-.34-3.16,2.27-6.28-.05-10.2-.48,3.92-.6,7.07.05,10.2ZM162.72,146.47c-2.02,1.83-1.43,3.53-.44,5.17.16.27,1.16.43,1.33.25,1.37-1.54.05-2.97-.32-4.44-.08-.34-.36-.62-.57-.98ZM35.98,146.34c-.6,1.96-1.9,3.44-1,5.37.27.57,1.3.42,1.61-.09.99-1.63,1.5-3.34-.61-5.28ZM106.19,22.96c1.58-2.41,3.62-4.33,5.88-6.05-3.61.36-5.41,2.56-5.88,6.05Z"/>
      <path class="cls-1" d="M99.53,134.89c2.44,5.21,5.7,9.34,9.22,13.37,2.01,2.3,2.22,5.34.02,7.86-2.06,2.37-4.75,2.02-7.14.66-1.64-.93-2.78-.75-4.35.08-2.45,1.29-5.13,1.58-7.12-.85-1.98-2.42-1.88-5.38,0-7.58,3.56-4.14,6.92-8.35,9.36-13.54Z"/>
      <path class="cls-1" d="M67.17,68.44c.89-1.47,1.35-2.52,2.07-3.35.93-1.09,2.01-2.89,3.51-2.15,1.63.81,1.77,2.86,1.35,4.65-.29,1.23-.78,2.54-1.89,3.14-4.08,2.21-1.59,3.55.59,4.9,1.57.97,3.2,1.86,5.04,2.23.8-.86.04-1.69.13-2.5.15-1.42-.56-3.41,1.19-3.93,1.45-.43,2.73.96,3.72,2.1.74.85,1.61,1.95,1.25,3.01-1.58,4.57,1.54,6.58,4.45,8.83,1.57,1.21,2.95,2.65,3.88,4.64-1.94-1.58-3.82-3.25-5.85-4.7-2.53-1.8-5.1-3.6-7.82-5.08-2.99-1.63-6.1-3.49-9.7-1.4-.1.06-.24.05-.37.07-2.71.34-6.44.21-6.94-2.12-.62-2.89,3.3-2.77,5.54-3.67-.83-2.16-2.16-4.2-1.95-6.64.13-1.47-.97-1.85-1.91-2.43-2.14-1.32-3.39-3.26-3.83-5.72-.45-2.48.44-3.26,2.87-2.33,1.87.71,3.12,1.99,4.37,4.25.94-1.55,1.76-2.91,2.59-4.27.36.26.72.53,1.08.79-2.51,3.36-4.62,6.84-3.35,11.7Z"/>
      <path class="cls-1" d="M105.66,89.44c1.45-1.34,2.89-2.7,4.37-4.02,2.64-2.35,6.48-4.05,4.54-8.8-.19-.46.15-1.24.42-1.78.95-1.86,2.51-3.77,4.48-3.36,2.06.43,1.22,2.87,1.22,4.53,0,.58-.17,1.16-.28,1.84,1.92-.1,3.31-.99,4.7-1.76,3.94-2.16,3.96-2.4.98-5.71-.17-.19-.33-.37-.48-.58-1.52-2.09-1.55-6.41.11-6.81,2.36-.56,3.34,1.62,4.49,3.16.42.56.67,1.26,1.09,2.09,1.15-4.46.68-6.17-3.1-11.49,1.88.36,2.32,2.15,3.68,3.02.46-.6.85-1.24,1.37-1.74,1.53-1.46,3.51-3.49,5.37-1.96,1.59,1.3.58,4.39-.88,5.34-4.33,2.82-4.46,7.6-6.36,11.73.48.11.93.22,1.37.33,1.81.47,4.39.98,4.3,2.87-.11,2.21-3.03,2.94-4.72,2.5-11.28-2.89-17.87,4.87-25.35,10.71-.27.21-.59.35-.89.52-.14-.21-.29-.43-.43-.64ZM130.54,70.89c-.93-2.4-.81-4.96-3.67-5.43-.83-.14-1.39.43-1.26,1.37.34,2.58,1.92,3.8,4.93,4.06Z"/>
      <path class="cls-1" d="M62.33,163.73c.06-.33.09-1.1.36-1.78.27-.65.56-1.58,1.43-1.53.86.05,1.12.93,1.16,1.67.15,3.27,2.01,2.7,4.12,1.99,4.35-1.48,8.69-3.06,13.31-3.55,4.7-.49,9.21.05,13.16,2.93,1.22.89,2.18,2.04,2.63,3.53.22.72.52,1.51-.22,2.05-.57.41-1.17.03-1.71-.31-4.72-2.96-9.8-2.21-14.87-1.38-4.54.74-8.86,2.61-13.52,2.72-4.1.09-6.1-1.99-5.85-6.33ZM74.71,163.66c6.91-1.1,13.72-2.67,20.4.76-6.69-4.46-13.58-3.24-20.4-.76Z"/>
      <path class="cls-1" d="M102.21,164.14c5.37-4.81,11.64-4.21,17.95-2.85,3.02.65,5.96,1.7,8.88,2.74,2.28.81,4.17,1.23,4.42-2.1.05-.61.16-1.35.89-1.48.95-.17,1.16.7,1.48,1.34,2.06,4.1-.46,8.22-5.1,8.28-3.53.05-6.83-1.21-10.22-1.94-6.33-1.35-12.65-2.96-18.81.77-1.61.97-2-.16-1.69-1.53.31-1.38,1.15-2.45,2.29-3.3-.14,2.09.91,1.16,1.75.68,4.57-2.65,9.44-2.78,14.46-1.77,1.72.34,3.46.57,5.19.85-7.23-3.33-14.4-3.14-21.47.32Z"/>
      <path class="cls-1" d="M95.34,106.41c-2.04-2.66-3.45-4.71-5.07-6.58-8.25-9.56-18.7-14.24-31.34-13.85-9.44.29-14.68,4.7-16.78,13.92-.16.7-.11,1.5-.83,1.97-1.86-7.65,3.36-15.84,12-17.91,10.91-2.62,21.03-.25,30.16,6.19,6.01,4.24,10.27,10.07,11.86,16.27Z"/>
      <path class="cls-1" d="M104.01,105.52c4.27-11.6,12.68-18.49,24.32-21.44,5.85-1.48,11.84-1.8,17.72.02,8.15,2.52,13.28,10.76,11.2,17.96-.17-.22-.39-.37-.41-.55-1.33-10.6-8.07-16.27-20.67-15.52-12.5.75-22.28,6.38-29.75,16.28-.81,1.08-1.61,2.17-2.41,3.26Z"/>
      <path class="cls-1" d="M93.16,80.27c-.6-.43-1.35-.75-1.77-1.31-1.12-1.49-4.1-2.83-2.99-4.46,1.59-2.35,2.8-5.93,7.01-5.5,2.94.3,5.93.07,8.91.06,1.25,0,2.33.14,3.36,1.13,4.24,4.07,4.31,4.45.3,8.74-1.77,1.9-3.57,3.76-5.36,5.64.75-3.91,5.03-5.28,6.45-8.78q-4.56-.58-6.01,3.35c-.47,1.28-.91,2.58-1.4,3.85-.42,1.1.37,1.25,1.09,1.47-1.95,3.02-3.88,3.58-6.16.21-1.07-1.58-2.75-2.74-3.44-4.63,1.37,1.19,2.73,2.37,4.45,3.86-2.17-8.86-2.47-9.16-7.24-7.83.95,1.41,1.89,2.81,2.83,4.22ZM102.83,73.54c-1.77-.33-1.96-3.69-4.58-2.38-.46-1.77-1.9-1.11-3.01-1.17-.59-.04-1.42.08-1.28.86.14.8.54,1.66,1.08,2.26.56.62,1.02-.08,1.44-.5.59-.58.93-1.46,1.9-1.58.33,1.3-1.69,1.78-1.08,3.35,1.8-.37,3.84.99,5.4-.98,2.05.16,2.92-1.6,2.4-2.72-.63-1.35-2.42-.92-3.74-.27.28,1.33,1.73,1.8,1.47,3.12ZM99.61,85.65c1.23-3.28,2.2-5.78,3.1-8.29.19-.52.57-1.52-.11-1.6-1.93-.23-4.07-.62-5.8-.01-1.49.52.07,2.09.35,3.12.54,2.01,1.4,3.93,2.46,6.79Z"/>
      <path class="cls-1" d="M166.21,108.62c-1.17-5.94-4.09-10.83-6.98-15.73-.82-1.39-1.62-2.85-1.69-4.5-.07-1.71.45-3.75,2.33-3.57,1.79.18,2.72.15,4.22-1.17,1.67-1.47,2.43.87,2.87,2.15,1.57,4.59,1.23,9.35.78,14.06-.28,2.95-1.01,5.85-1.54,8.77ZM165.93,103.13c.63-5.95,1.57-11.89-.95-18.28-1.67,2.87-.34,5.01-.42,7.69-1.2-2.01-2.09-3.61-3.11-5.13-.31-.47-1.04-1.06-1.44-.97-.77.18-1.1,1.05-.93,1.81.23,1.08.53,2.19,1.03,3.16,1.99,3.85,4.25,7.56,5.83,11.72Z"/>
      <path class="cls-1" d="M33.07,108.83c-2.18-7.15-3.18-14.25-1.71-21.48.82-4.01,1.35-4.17,4.68-2.16.54.33.84.07,1.31-.01,2.96-.51,4.29.85,3.77,3.82-.13.73-.35,1.47-.69,2.12-3,5.66-6.82,10.96-7.36,17.71ZM32.85,103.59c1.49-4.5,3.91-8.52,6.05-12.67.39-.76.62-1.62.8-2.47.16-.77-.07-1.61-.77-1.95-.87-.43-1.35.45-1.71,1.01-.96,1.47-1.81,3.02-3.19,5.38.18-3.11,1.52-5.25-.23-7.88-2.59,6.41-1.79,12.46-.95,18.58Z"/>
      <path class="cls-1" d="M157.97,141.59c-4.23.05-7.74,2.26-11.33,4.19-5.34,2.88-10.91,4.61-17.17,3.11,10.56,1.52,18.09-8.25,28.5-7.3Z"/>
      <path class="cls-1" d="M40.04,141.82c3.56-1.68,6.3-.38,8.94.81,4.18,1.89,8.11,4.39,12.69,5.27,2.36.45,4.77.61,8.19,1.03-11.79,3.16-19.33-6.37-29.82-7.12Z"/>
      <path class="cls-1" d="M130.22,155.21c2.71-2.47,5.83-3.86,9.48-3.19,2.1.39,3.43,1.92,3.93,4.02.33,1.39-.3,2.48-1.5,3.08-1.43.71-2.89.58-4.2-.4-.71-.53-1.37-1.19-1.22-2.14.15-.95.93-1.76,1.81-1.39,2.31.98-.25.84-.38,1.29-.23.81.34,1.14.89,1.36.83.34,1.74.39,2.5-.14.7-.49.76-1.21.37-1.97-.97-1.89-2.54-2.55-4.6-2.4-2.49.17-4.69,1.31-7.07,1.88Z"/>
      <path class="cls-1" d="M34.32,78.59c2.58-1.21,3.65-4.33,6.61-3.07,1.16.49,3.34-.2,3.39,1.91.03,1.38-4.22,3.66-5.61,3.16-1.25-.46-2.43-1.1-4.38-2Z"/>
      <path class="cls-1" d="M164.02,78.61c-3.17,2.34-6.06,3.13-8.86-.43-.89-1.13-.89-1.4.41-2.04,3.64-1.77,6.19-.41,8.45,2.47Z"/>
      <path class="cls-1" d="M166.02,119.87c-2.29-1.03-3.98-2.61-5.7.51-.47-2.48,1.12-4.86-3.32-5.14,3.09-1.11,5.28-.97,5.42-4.67,1.24,2.83,2.32,4.24,5.41,3.6-2.16,1.81-3.17,3.2-1.81,5.7Z"/>
      <path class="cls-1" d="M81.53,60.16c1.03,2.21,2.13,3.36,4.63,2.65-.82,1.88-3.26,2.85-.79,5.61-2.68-.93-4.5-1.97-6.32.18-.26-2.11,1.22-4.36-2.17-5.04,2.37-.63,4.47-.56,4.65-3.4Z"/>
      <path class="cls-1" d="M35.9,111.64c.69,2.27,2.18,2.89,4.8,2.74-1.93,1.63-2.85,3.06-1.48,6.06-2.47-2.27-4.14-2.16-6-.77-.05-2,.76-4-2.02-4.75,2.24-.54,4.05-.94,4.7-3.28Z"/>
      <path class="cls-1" d="M118.5,68.44c-2.16-.9-3.82-3.35-5.43.84-.64-2.68.87-5.01-3.26-5.38,2.79-1.26,5.48-.47,4.77-4.34,1.93,2.18,2.52,4.55,5.46,3.53-2.1,1.46-2.6,3.02-1.55,5.36Z"/>
      <path class="cls-1" d="M83.81,147.43c.94,3.68.5,6.45-1.89,8.7-1.38,1.3-3.06,1.66-4.8.87-1.32-.6-2.17-1.7-1.99-3.24.23-1.98,1.8-2.51,3.41-2.85,2-.42,3.64-1.4,5.27-3.48ZM83.32,150.36c-1.78.73-3.37,1.38-4.95,2.03-.93.38-2.04.78-1.58,2.04.51,1.36,1.75,1.74,3.05,1.19,2.13-.89,3-2.75,3.48-5.26Z"/>
      <path class="cls-1" d="M115.77,147.27c1.71,2.46,3.59,3.29,5.68,3.75,1.54.34,2.82,1.02,3.04,2.77.15,1.22-.48,2.15-1.43,2.83-1.46,1.05-3.07,1.08-4.51.12-3.2-2.13-3.72-5.21-2.79-9.48ZM116.28,150.34c.52,2.55,1.36,4.41,3.5,5.29,1.3.54,2.53.13,3.05-1.2.48-1.25-.64-1.65-1.56-2.03-1.54-.64-3.08-1.28-4.98-2.06Z"/>
      <path class="cls-1" d="M69.46,154.94c-2.71-.63-4.82-1.21-6.98-1.58-1.9-.32-3.43.5-4.34,2.2-.54,1-.41,2.04.84,2.38,1.09.3,2.2.27,2.87-.99.32-.6-1.62-1.59.16-1.65,1.15-.04,1.55,1.28,1,2.28-1.05,1.91-2.84,2.38-4.8,1.7-1.86-.65-2.34-2.2-1.67-3.93.76-1.99,2.27-3.3,4.46-3.44,3-.19,5.72.6,8.46,3.05Z"/>
      <path class="cls-1" d="M99.37,90.21c.52,2.73,5.63,4.22,2.13,7.84-1.25,1.3-3.17,1.24-4.38-.15-3.1-3.57,1.72-5,2.25-7.69ZM101.19,95.33c-.45-.89-.85-2.32-1.92-2.16-.9.14-1.7,1.36-1.63,2.57.06,1.02.84,1.49,1.76,1.46,1.09-.03,1.82-.6,1.79-1.88Z"/>
      <path class="cls-1" d="M149.51,68.1c.99-2.61,3.5-3.4,5.91-4.52-1.02,1.72-2.04,3.44-3.23,5.44h4.95c-1.62,2.07-3.55,3.11-5.35,4.31.55-.88,1.1-1.77,1.84-2.96-1.38-.17-3.92.58-2.51-2.43.25-.53-1.04-.07-1.6.15Z"/>
      <path class="cls-1" d="M146.97,69.26c.3,1.05-.98,1.35-1.08,2.38,1.14,1.03,4.64-1.32,3.96,2.5-1.34,2.52-3.87,3.57-6.46,4.73,1.56-1.9,3.13-3.8,4.94-5.99h-5.62c1.23-1.86,2.77-2.71,4.26-3.63Z"/>
      <path class="cls-1" d="M134.08,93.54c-.46,1.59-1.36,2.5-2.98,2.39-1.61-.11-2.62-1.07-2.49-2.64.13-1.55,1.34-2.49,2.86-2.36,1.48.12,2.43,1.13,2.61,2.61Z"/>
      <path class="cls-1" d="M49.43,74.17c-1.07-4.04,2.47-1.49,3.56-2.5.24-1-1.2-1.11-1.13-2.04,1.91.1,2.76,1.75,4.49,2.8-1.94,1.09-3.71-.18-5.58.67,1.62,1.96,3.2,3.86,4.77,5.76-2.43-1.16-5.17-1.84-6.11-4.68Z"/>
      <path class="cls-1" d="M69.99,93.65c-.13,1.56-1.13,2.34-2.7,2.28-1.56-.06-2.61-.92-2.57-2.55.04-1.66,1.27-2.47,2.72-2.43,1.45.04,2.54.92,2.56,2.71Z"/>
      <path class="cls-1" d="M59.38,94.48c-.33,2.23-1.75,3.38-3.82,3.26-2.05-.11-3.6-1.35-3.44-3.59.15-1.99,1.6-3.06,3.58-3.03,2.14.03,3.44,1.16,3.68,3.36ZM58.43,94.27c-.45-1.34-1.24-2.32-2.86-2.22-1.59.1-2.57,1-2.43,2.57.12,1.36,1.14,2.11,2.55,2.12,1.6.01,2.43-.88,2.73-2.48Z"/>
      <path class="cls-1" d="M99.4,105.09c.99,5.58,1.06,11.11.06,16.65-1.11-5.55-.82-11.12-.06-16.65Z"/>
      <path class="cls-1" d="M47.31,67.13c.68,1.79,1.97,3.9-1.78,3.19-.1,1.36,1.34,1.44,1.58,2.38-2.37-.04-3.33-2.17-4.97-2.9.32-2.64,5.11,1.96,3.68-2.85.57-.5,1.05-.32,1.49.18Z"/>
      <path class="cls-1" d="M140.17,95.66c.12.04.25.05.35.12,1.4,1.02,2.86,1.54,4.33.19.83-.76.95-1.78.35-2.69-1.12-1.72-2.7-1.37-4.27-.74,1.41-2.74,3.3-1.6,4.69-.26,1.62,1.56,1.29,3.55-.57,4.73-1.88,1.19-3.97,1.65-4.88-1.35Z"/>
      <path class="cls-1" d="M147.48,152.55c-1.01-.33-1.9-.91-1.8-2.05.11-1.3,1.05-1.98,2.35-1.76,1.09.18,1.85.97,1.62,2.11-.21,1.02-1,1.69-2.17,1.71Z"/>
      <path class="cls-1" d="M47.31,67.13c-.44-.5-.92-.69-1.49-.18-1.03-.9-1.77-1.99-1.99-3.59,2.82,2.01,6.07,3.4,8.16,6.38-1.94-.18-2.81-2.29-4.68-2.61Z"/>
      <path class="cls-1" d="M68.34,203.62c2.54,2.64,5.87,1.84,8.95,2.05,3.31.23,6.23,1.28,8.58,3.9-4.47-2.62-9.48-2.12-14.28-2.85-2.82-.43-2.9-.63-3.25-3.1Z"/>
      <path class="cls-1" d="M131.26,203.81c.02,2.57-1.98,2.72-3.77,2.97-4.61.63-9.42.16-13.66,2.78,4.41-6.14,12.16-1.96,17.43-5.75Z"/>
      <path class="cls-1" d="M147.67,189.96c-.17,1.37-.91,2.28-2.33,2.36-1.47.09-2.37-.84-2.46-2.2-.09-1.41.8-2.3,2.26-2.35,1.43-.04,2.28.72,2.53,2.18Z"/>
      <path class="cls-1" d="M55.81,190.17c-.21,1.44-1.04,2.25-2.47,2.14-1.39-.11-2.23-1-2.16-2.44.08-1.49,1.08-2.14,2.47-2.09,1.47.06,2.14.97,2.16,2.39Z"/>
      <path class="cls-1" d="M123.02,181.8c.44,2.82-1.66,3.85-3.51,3.85-2.04,0-3.95-1.06-3.98-3.91-.03-2.87,2.01-3.99,3.93-3.99,1.97,0,4.16,1.22,3.56,4.05Z"/>
    </g>
  </g>
</svg>