<?xml version="1.0" encoding="UTF-8"?>
<svg id="Layer_2" data-name="Layer 2" xmlns="http://www.w3.org/2000/svg" viewBox="0 0 198.37 225.12">
  <defs>
    <style>
      .cls-1 {
        fill: #353535;
        stroke-width: 0px;
      }
    </style>
  </defs>
  <g id="Layer_1-2" data-name="Layer 1">
    <path class="cls-1" d="M197.07,111.78c-2.48-2.76-1.97-5.95-2.43-9.06-.65-4.43-.89-9.52-5.03-11.99-3.09-1.83-3.08-3.83-2.98-6.58.12-3.23.2-6.5-.09-9.71-2.86-31.68-17.61-55.07-47.69-67.45C126.12,1.75,112.71-.16,98.37.03c-7.77-.2-16.08.57-24.25,2.39-25.14,5.6-44.59,18.7-55.53,42.72-5.89,12.95-8.13,26.6-7.28,40.79.07,1.22.93,2.81-.84,3.64-3.85,1.8-4.89,5.37-5.86,9.04-1.3,4.94-1.96,9.99-3.43,14.97-2.89,9.8-.35,19.93,6.28,27.7,3.22,3.77,5.89,7.75,8.67,11.74.71,1.02,1.48,2.01,2.29,2.95,3.05,3.59,6.62,5.66,11.5,3.85.56-.21,1.41-.48,1.79-.22,3.93,2.68,8.43,1.74,12.71,2.09,1.77.14,2.65.85,3.15,2.52,1.45,4.81,2.45,9.63,1.58,14.71-1.04,6.01-2.35,12-2.17,18.15.27,9.49,4.4,15.23,13.32,18.1,8.3,2.67,16.64,5.2,25.02,7.59,6.62,1.88,13.36,3.15,20.29,1.76,12.24-2.44,24.08-6.32,35.8-10.51,5.97-2.13,9.13-7.03,10.13-13.31,1-6.29-.09-12.43-1.33-18.54-1.19-5.89-.91-11.59.83-17.33.7-2.3,1.85-3.15,4.2-3.24,3.33-.12,6.83.58,9.91-1.15,1.44-.81,2.68-.98,4.21-.45,3.74,1.3,6.82,0,9.49-2.66,3.04-3.03,5.22-6.64,7.13-10.44.55-1.08.84-2.39,2.16-2.93,2.74-1.12,4.18-3.48,5.45-5.92,3.23-6.19,4.67-12.85,4.76-19.79.03-2.23.18-4.87-1.27-6.49ZM54.99,10.15c29.51-13.08,59.79-12.98,89.14.63,25.25,11.72,37.54,33.19,40.96,60.22.61,4.83.73,9.68.44,14.56-.14,2.36-.69,3.13-3.34,2.66-4.02-.71-5.09-2.36-5.06-6.6.11-17.05-4.59-32.69-15.27-46.28-.68-.86-1.61-1.96-1.55-2.9.3-5.05-3.47-5.66-6.82-5.91-3.03-.23-3.24-1.39-2.49-3.7.98-3.01.68-4.46-3.15-3.39-3.16.88-6,.75-7.86-3.26-2.19-4.72-7.14-5.64-13.43-4.14-2.26.54-4.31,3.85-7.02,1.09-1.98-2.01-1.99-4.7-1.81-7.53-4.21.89-7.2,3.25-10.12,6.08-3.75-5.52-9.12-7.43-15.77-7.98.85,2.17,3.5,2.71,2.65,5.3-4.05-.89-8.11-1.89-12.52-1.75-7.28.22-12.88,3.85-18.7,7.31-.75.45-1.5.89-2.28,1.28-.88.44-1.88,1.16-2.79.54-.97-.66-.37-1.82-.31-2.79.05-.91,1.24-1.97.08-2.69-.97-.6-1.84.43-2.65.93-3.47,2.11-6.33,4.79-8.08,8.57-1.28,2.76-2.93,4.92-6.32,5.7-3.49.81-5.13,3.7-5.42,7.27-.19,2.38.4,4.67,1.1,7.75-3.12-2.55-4.43-1.02-5.89,1.16-8.23,12.36-10.64,26.13-10.18,40.64.12,3.65-3.1,6.33-6.8,5.77-1.51-.23-1.23-1.37-1.28-2.27-1.66-26.4,7.78-60.83,42.55-76.25ZM176.45,95.01c.75,4.64,1.3,8.34.72,12.14-.39-3.71-2.97-7.24-.72-12.14ZM153.36,43.67c-.11-1.04.89-1.16,1.39-1.37,1.54-.63,3.4-2.3,4.75-1.07,1.65,1.5-.43,3.12-1.19,4.5-1.11,2.01-1.33,3.17,1.56,2.93.77-.06,1.44.33,1.84,1.05-.3.65-.76.26-1.21.21q-5.72-.59-2.91-5.82c.21-.4.35-.83.57-1.34-1.89-.48-3.23.74-4.8.9ZM144.79,40.62c.99-5.73,3.98-8.62,9.28-8.95-4.5,2.12-6.96,4.94-9.28,8.95ZM137.6,32.49c-2.41-5.17-6.53-8.5-11.57-10.96,6.48.89,10.84,4.98,11.57,10.96ZM123.62,33.34c.7,5.38-2.84,9.76-9.23,11.89,3.98-3.02,7.98-5.98,9.23-11.89ZM114.13,33.17c1.69-5.08,4.44-6.98,9.25-6.54-3.76.99-6.49,3.39-9.25,6.54ZM112.07,16.91c-2.26,1.72-4.3,3.65-5.88,6.05.47-3.49,2.27-5.69,5.88-6.05ZM104.06,36.18q-6.25-8.56-14.46-13.18c6.51.17,13.49,6.54,14.46,13.18ZM64.44,39.02c-3.29-4.63-2.38-11.93,2.24-17.94,5.12-6.66,14.23-8.92,22.87-5.61-18.48-3.26-28.43,9.52-25.1,23.54ZM89.04,30.73c-9.1-2.93-14.52-1.2-16.79,5.16-.81-3.65,1.36-5.27,3.83-6.62,4.33-2.36,8.87-1.95,12.97,1.46ZM50.36,32.33c-2.17-3.81-1.26-8.38,2.36-12.69-.94,4.33-2.81,8.04-2.36,12.69ZM35.63,51.38c1.6,3.03,1,4.38-2.95,5.45,2.28-1.3,3.55-2.74,1.47-5.28-.98-1.2-2.36-2.72-1.18-4.3,1.31-1.74,3.19-.54,4.8-.12.8.21,1.55.66,2.42,1.05-.9.7-1.55.11-2.23.03-1.21-.14-2.78-.93-3.54.02-.92,1.14.67,2.13,1.21,3.15ZM21.65,107.66c-.65-3.13-.53-6.28-.05-10.2,2.32,3.92-.29,7.04.05,10.2ZM3.32,111.41c.59,5.2,1.18,10.36,2.33,15.44,1.14,5.06,2.62,10.03,4.67,15.21-7.02-4.15-11.27-22.83-7-30.65ZM28.47,159.12c-2.35.63-4.42.17-6.34-1.25-2.13-1.58-3.91-3.53-5.24-5.78-9.46-16.03-13.63-33.28-11.31-51.84.57-4.54,1.69-9.25,8.07-10.16-5.56,15.73-2.16,30.29,3.77,44.59-1.08-4.35-2.27-8.67-3.2-13.04-2.07-9.7-3.25-19.42.29-29.08.59-1.61,1.08-3.17,3.25-3.64,3.09-.67,3.98-.16,3.35,2.98-.59,2.93-1.36,5.8-1.5,8.81-.66,14.99,2.46,29.19,9.01,42.63,1.12,2.31,1.98,4.4,1.15,7.05-.59,1.88-.53,4.04.42,5.85,1.14,2.17-.13,2.44-1.73,2.87ZM38.46,159.66c-2.27-.05-5.02.29-5.17-2.41-.1-1.82,2.46-2.16,4.12-2.16,2.21,0,4.54.86,4.45,3.4-.08,2.21-2.42.54-3.4,1.17ZM35.98,146.34c2.12,1.94,1.61,3.65.61,5.28-.31.51-1.34.66-1.61.09-.9-1.93.39-3.41,1-5.37ZM40.95,150.29s-.02,0-.03,0c.98-1.16,1.95-2.31,3.1-3.68.99,1.42.7,2.74.48,4.03-.33,1.94-1.76,3.56-3.42,3.15-1.9-.47.2-2.28-.13-3.5ZM40.76,150.29c-1.3.06-.98,3.15-2.5,1.78-1.27-1.15.42-2.56,1.27-3.68.48-.64,1.43-.95,1.41-1.95,2.22,1.34-.93,2.55-.18,3.85ZM43,158.69c-.48-2.3,1.78-2.25,3.1-2.82.96-.41,2.09-.44,3.23-.66.17,2.28-2.18,2.74-2.77,4.32-1.11-.69-3.07,1.52-3.57-.84ZM56.4,210.83c-1.53-.34-3-1.39-3.39-3.02-.23-.94.96-1.27,1.83-1.31,1.65-.07,2.44.89,2.69,2.45-.27.71,0,2.13-1.13,1.88ZM63.04,213.7c-1.64-.72-4.26-.18-4.62-2.54-.17-1.09,1.5-1.74,3.09-1.71,1.64.13,2.59,1.27,2.8,3.03.09.78-.33,1.63-1.26,1.22ZM71.35,216.26c-.72-.15-1.43-.35-2.11-.64-1.17-.5-3.03-.19-3.36-1.62-.26-1.13,1.2-1.72,2.27-1.98,1.75-.43,3.11.31,4.04,1.81.25.41.4.88.5,1.12.16,1.35-.51,1.49-1.34,1.31ZM90.04,219.33c-.29,1.26-.92,2.12-2.66,1.68-2.84-.72-5.34-1.88-8.12-4.44,3.45.48,6.15.83,8.85,1.23.91.14,2.29-.02,1.93,1.53ZM79.8,214.92c3.66,0,7.33-.05,10.99.05.71.02,2.01.13,1.82,1.28-.14.84-1.1,1.26-2.09,1.01-3.54-.89-7.31-.57-10.72-2.33ZM107.37,221.59c-.98.95-1.38-.18-1.99-.74-.7-.64-1.55-1.11-2.34-1.65,2.55,2.37,1.66,3.43-1.39,3.51-1.96.05-3.92-.07-5.88-.18-3.17-.19-2.35-1.57-.88-3.1-.46.18-.91.37-1.38.53-.99.34-1.3,2.87-2.7,1.28-.81-.93.65-2.21,1.46-3.08,4.11-4.39,11.87-3.6,14.71,1.47.33.6,1.04,1.34.39,1.97ZM102.1,214.74c-.6-2.27,1.78-2.92,2.31-4.47.8-.16,1.59-.33,2.4-.49.38,3.41-2.18,4.06-4.71,4.97ZM107.37,215.23c3.76-.89,7.58-.48,11.38.33-3.82.7-7.63,1.42-11.46,2.07-.66.11-1.25-.41-1.35-1.03-.16-.99.79-1.21,1.43-1.37ZM108.19,219.72c-.46-1.79,1.14-1.64,2.06-1.82,2.78-.53,5.6-.91,8.4-1.33.85-.13.96.5,1.11,1.08-3.03.9-5.55,3.02-8.81,3.52-1.58.24-2.4-.04-2.77-1.45ZM127.08,216.32c-1.08.3-1.3-.49-1.14-1.3.42-2.17,1.85-3.22,3.99-3.06,1.26.09,2.37.71,2.91,2.4-1.74,1.12-3.81,1.41-5.76,1.96ZM135.5,213.82c-1.3.41-1.39-.75-1.27-1.58.28-1.84,1.48-2.81,3.33-2.77,1.32.03,2.33.67,2.76,2.28-1.2,1.49-3.15,1.55-4.82,2.07ZM142.22,210.95c-1.03.24-1.2-1.03-1.21-1.84-.02-1.58.86-2.45,2.41-2.63,1.05.08,2.27.31,2.11,1.5-.24,1.72-1.8,2.62-3.31,2.97ZM152.3,159.54c-.71-1.49-2.73-2.04-2.92-4.29,2.49.74,6.01-.19,6.37,3.35.25,2.45-2.34.2-3.45.94ZM154.53,146.34c1.97,2.01,3.02,3.76,3.75,5.72.22.59.45,1.19-.12,1.7-.62.54-1.13.04-1.64-.25-2.74-1.51-2.48-3.95-1.98-7.17ZM160.32,159.65c-.93-.67-3.3,1.11-3.33-1.2-.04-2.53,2.27-3.39,4.49-3.36,1.64.02,4.22.34,4.07,2.2-.21,2.66-2.94,2.35-5.23,2.37ZM162.72,146.47c.21.36.49.64.57.98.36,1.47,1.69,2.9.32,4.44-.17.19-1.16.02-1.33-.25-.99-1.64-1.58-3.34.44-5.17ZM160.81,138.89c.1.16.18.32.26.49,1.83,1.51,3.41,3.89,4.74,7.21-1.89-.83-3.71-2.87-5.02.37-.6,1.49-1.6-.2-2.36-.54-1.33-.6-2.77-2.08-4.06-1.26-1.55.98-1.4,3.07-1.14,4.81.2,1.32,1.08,2.69-1.37,2.81-1.45.07-3.49.34-3.75,1.88-.29,1.72,1.17,3.19,2.61,4.27.43.32.97.48,1.48.69-.59.59-1.33.81-2.1.97.15.83.05,1.69-.29,2.46,0,.07,0,.13-.02.19-2.87,7.24-2.61,14.6-1.01,22.05.95,4.4,1.38,8.86,1.02,13.37-.13,1.62-.14,3.25-2.64,2.88-.96-.14-1.68.79-2.38,1.57-2.18,2.43-4.57,4.2-7.92,5.35-3.15,1.09-5.98,2.8-9.54,2.91-1.58.05-2.55,2.05-2.63,3.72-.18,3.61-2.82,2.95-5.01,3.14,0,0-.06-.19-.03-.27.03-.11.11-.2.17-.3,1.54-1.42,2.93-2.95,3.9-5.38-4.38,1.83-8.71,1.04-12.93,1.53-1.23.14-2.3.18-1.9-1.66.25-1.12,1.18-2.7-.41-3.26-1.41-.5-3.1-.35-4.06,1.26-2.81-.53-2.38-4.61-5.52-4.98-.29.89-.52,1.82-.89,2.69-.79,1.88-1.5,3.07-4.05,1.58-3.13-1.83-4.1-1.03-3.78,2.58.14,1.56-.14,2.03-1.69,1.83-4.16-.55-8.43.17-12.69-1.25.53,2.52,2.5,3.86,3.96,6.08-3.03-.76-6.25-.3-6.23-4.57,0-.7-.39-1.53-.95-2.04-.68-.05-1.35-.24-1.92-.59-3.44-.45-6.42-2.27-9.62-3.04-3.06-.73-4.36-3.22-6.83-4.37-1.04-.49-1.67-2.53-3.53-2.61-1.69-.07-1.47-1.48-1.56-2.49-.29-3.36-.2-6.71.4-10.05,1.6-8.82,3.24-17.64-1.05-26.97.02.02.04.03.07.05-.23-.47-.37-.99-.42-1.52-.52-.16-1.01-.39-1.41-.84.6-.13,1.11-.41,1.55-.77.29-1.08.98-2.03,2.09-2.5,1.03-1.83.35-3-2.3-3.34-2.92-.38-2.88-1.57-2.36-3.83.32-1.4.13-3.28-1.18-4.04-1.18-.68-2.55.23-3.54,1.24,0,0,0-.01,0-.02-1.3.42-2.33,1.98-3.81-.45-1.65-2.69-2.75,1.14-4.36,1.09,1.15-3.81,2.89-6.48,5.12-8.01-.22-.59-.44-1.17-.65-1.76-.72-.22-.83-1.31-1.16-1.9-8.41-15.03-11.24-30.97-7.83-47.96,1.08-5.38,1.99-10.78,3.93-15.94,2.55-6.77,6.78-11.93,13.93-14.03,3.8-1.11,1.01-2.9.5-4.83,3.58.7,6.9,1.35,10.39,2.04.21-2.49-2.38-2.34-2.84-4.05,21.54,5.48,43.23,5.14,65.08,1.9.18,1.35-2.1,1.23-1.38,2.55.52.95,1.58.49,2.39.49,5.5-.05,11.03-.37,16.3-1.9,7.54-2.2,13.95.24,19.49,4.72,7.28,5.89,11.88,13.73,13.45,23.08,3.07,18.26,2.17,36.02-7.04,52.65-.42.76-.83,1.53-1.25,2.3-.08.16-.18.28-.29.37-.03.12-.04.24-.08.36-.04.12-.1.41-.18.67.08.37.12.75.14,1.13ZM184.24,147.77c-1.78,3.44-3.86,6.7-6.82,9.27-1.72,1.5-3.61,2.67-6.07,2.31-2.28-.33-4.21-.77-2.7-3.86.46-.95.7-2.32.39-3.28-1.41-4.34.54-7.83,2.17-11.63,6.03-14.04,9.29-28.61,7.23-44.01-.18-1.35-.56-2.67-.88-4-.34-1.43-1.82-3.43.23-4.06,1.69-.52,3.94.13,4.92,2.4,2.22,5.13,3.05,10.52,2.87,16.04-.26,8.26-2.05,16.27-4.29,24.2-.26.93-.91,1.8-.23,3.75,5.43-15.04,8.61-29.49,3.24-44.63,4.84.37,6.73,2.02,8.13,7.22,1.74,6.48,1.56,13.09.81,19.66-1.22,10.71-4.02,20.99-8.99,30.61ZM188.1,142.76c3.89-10.69,6.33-20.82,6.89-31.59,4.72,6.24.9,24.71-6.89,31.59Z"/>
  </g>
</svg>