<svg width="703" height="200" viewBox="0 0 703 200" fill="none" xmlns="http://www.w3.org/2000/svg">
<g clip-path="url(#clip0_126_866)">
<path d="M535.895 199.568V76.4164H508.237V199.887C503.277 194.113 499.23 189.523 495.328 184.809C491.148 179.756 486.937 174.703 483.086 169.403C481.73 167.54 480.693 164.946 480.672 162.672C480.508 135.81 480.57 108.949 480.57 82.0769C480.57 80.2449 480.57 78.413 480.57 76.3341H371.121V89.4046H453.467V157.855H343.587V131.817H425.84V117.275H343.197C343.197 103.401 343.135 90.1045 343.31 76.8178C343.33 75.5828 344.686 74.2037 345.702 73.1745C352.912 65.8776 360.06 58.5087 367.537 51.4897C369.272 49.8636 372.169 48.6492 374.531 48.6389C407.857 48.4536 441.174 48.5154 474.5 48.5154C476.338 48.5154 478.177 48.5154 480.57 48.5154C480.57 45.0265 480.724 41.9904 480.529 38.9749C480.282 35.1361 480.96 31.8427 483.63 28.7552C491.569 19.5852 499.261 10.1991 507.786 0.0205688V48.2993H563.244V130.963C575.332 118.87 587.646 106.53 600.371 93.7992C593.397 86.8522 585.078 78.8247 577.14 70.4575C575.394 68.6152 574.1 65.5792 574.028 63.0577C573.699 51.8396 573.884 40.6113 573.884 29.8461C589.248 45.2529 604.602 60.6391 620.459 76.5399C629.558 67.3391 637.302 59.26 645.385 51.5309C647.1 49.8842 649.986 48.7212 652.368 48.6492C663.594 48.3507 674.839 48.5154 685.479 48.5154C670.495 63.4796 655.377 78.5674 639.305 94.6123C661.324 116.595 681.926 137.148 703.01 158.195C690.255 158.195 677.869 158.287 665.483 158.061C664.148 158.04 662.721 156.311 661.56 155.148C648.26 141.851 635.001 128.513 620.952 114.403C592.699 142.706 564.631 170.823 535.905 199.588L535.895 199.568Z" fill="#E20040"/>
<path d="M114.912 48.6389H222.687V158.102C218.528 153.985 214.728 150.26 210.969 146.493C205.906 141.419 198.932 137.128 196.354 130.994C193.787 124.88 195.625 116.904 195.533 109.741C195.523 108.733 195.533 107.714 195.533 105.419C193.571 107.302 192.298 108.486 191.076 109.71C175.855 124.932 160.697 140.225 145.343 155.313C143.751 156.877 141.06 157.989 138.821 158.082C130.995 158.411 123.149 158.215 114.923 158.215V48.6389H114.912ZM142.467 76.2723V116.544C155.757 103.329 169.436 89.7133 182.952 76.2723H142.467Z" fill="#E20040"/>
<path d="M27.2261 117.131C27.2261 134.822 27.3493 151.732 27.0926 168.651C27.0515 171.173 25.778 174.219 24.0629 176.082C17.6851 182.977 10.8966 189.492 4.24154 196.13C3.10156 197.262 1.86915 198.302 0.0102539 199.99V48.7727H108.915V75.8504H27.565V89.4252H109.51C108.822 90.7734 108.627 91.5659 108.124 92.0702C100.421 99.8302 92.7597 107.642 84.8723 115.216C83.6193 116.421 81.3188 117.048 79.501 117.069C64.1266 117.213 48.7522 117.151 33.3881 117.151C31.5395 117.151 29.7012 117.151 27.2261 117.151V117.131Z" fill="#E20040"/>
<path d="M229.496 157.804V48.8756H256.784V131.272H310.086V47.867C313.68 51.4382 316.258 53.9597 318.795 56.5327C325.142 62.965 333.851 68.4197 337.106 76.1694C340.28 83.7441 337.897 93.6654 337.897 102.547C337.918 120.836 337.897 139.114 337.897 157.804H229.496Z" fill="#E20040"/>
</g>
<defs>
<clipPath id="clip0_126_866">
<rect width="703" height="200" fill="white"/>
</clipPath>
</defs>
</svg>
